<svg id="Capa_1" enable-background="new 0 0 512 512" height="512" viewBox="0 0 512 512" width="512" xmlns="http://www.w3.org/2000/svg"><g><g><g><g><g><g><g><g><g><circle cx="256" cy="256" fill="#ff636e" r="256"/></g></g></g></g></g></g></g></g><path d="m512 256c0-11.388-.744-22.602-2.185-33.597l-183.903-183.903-5.58 53.452-64.31-64.332v80.809l-69.934-69.929 32.264 231.007-58.033 156.787 85.507 85.507c3.375.132 6.767.199 10.174.199 141.385 0 256-114.615 256-256z" fill="#f03049"/><g><g><path d="m320.435 221.72-57.581-11.106 14.934-77.43c5.832-30.238 18.994-58.583 38.332-82.549l9.791-12.135 4.576 14.906c9.037 29.439 10.714 60.646 4.882 90.884z" fill="#0a9154"/></g><g><path d="m191.565 221.72 57.581-11.106-14.934-77.43c-5.832-30.238-18.994-58.583-38.332-82.549l-9.792-12.135-4.576 14.906c-9.037 29.439-10.714 60.646-4.882 90.884z" fill="#2cc47f"/></g></g><g><path d="m285.321 208.561h-58.642v-78.857c0-30.795 7.556-61.12 22.005-88.315l7.338-13.77 7.294 13.77c14.449 27.195 22.005 57.52 22.005 88.315z" fill="#1dd882"/></g><g><path d="m285.321 129.705c0-30.795-7.556-61.12-22.005-88.315l-7.294-13.77v180.941h29.299z" fill="#2cc47f"/></g><g><path d="m372.272 230.253c.006.385.008.77.008 1.156v47.197l-7.277 25.249 7.277 22.48v47.441c0 .362-.002.724-.007 1.085l-11.668 35.366-32.928 33.593c-9.922 4.635-20.99 7.223-32.664 7.223h-34.589l-4.402-.826-4.503.826h-34.532c-11.669 0-22.733-2.587-32.652-7.218l-32.4-31.644-12.209-37.385c-.004-.34-.007-.68-.007-1.021v-47.318l2.713-24.937-2.713-22.749v-47.361c0-.355.002-.71.007-1.065l13.511-39.81 31.12-29.185c9.912-4.624 20.969-7.207 32.628-7.207h34.586l4.449 1.777 4.429-1.777h34.562c11.678 0 22.751 2.591 32.676 7.229l29.712 27.86z" fill="#ffce00"/></g><path d="m260.424 451.043h34.589c11.674 0 22.742-2.589 32.664-7.223l32.928-33.593 11.668-35.366c.005-.361.007-.723.007-1.085v-47.441l-7.277-22.48 7.277-25.249v-47.197c0-.386-.003-.771-.008-1.156l-14.871-41.022-29.712-27.86c-9.925-4.638-20.998-7.229-32.676-7.229h-34.616l-4.375.854v295.239z" fill="#fdba12"/><g><path d="m348.069 254.56 24.204-24.204c-.409-30.565-18.565-56.846-44.633-69.007l-29.999 29.999-37.206-37.206h-8.871l-37.206 37.206-29.999-29.999c-26.068 12.16-44.224 38.441-44.633 69.007l24.204 24.204-24.211 24.211v47.643l24.211 24.211-24.204 24.204c.409 30.565 18.565 56.846 44.633 69.007l29.999-29.999 37.206 37.206h8.871l37.206-37.206 29.999 29.999c26.068-12.16 44.224-38.441 44.633-69.007l-24.204-24.204 24.211-24.211v-47.643zm-8.787-68.569c11.341 0 20.535 9.194 20.535 20.535s-9.194 20.535-20.535 20.535-20.535-9.194-20.535-20.535 9.194-20.535 20.535-20.535zm-41.641 35.714 32.854 32.854-32.854 32.854-32.854-32.854zm-21.106 80.888c0 11.341-9.172 20.535-20.513 20.535s-20.557-9.194-20.557-20.535 9.216-20.535 20.557-20.535c11.341-.001 20.513 9.193 20.513 20.535zm-20.513-116.602c11.341 0 20.513 9.194 20.513 20.535s-9.172 20.535-20.513 20.535-20.557-9.194-20.557-20.535 9.216-20.535 20.557-20.535zm-41.663 35.714 32.854 32.854-32.854 32.854-32.854-32.854zm-62.176-15.178c0-11.341 9.194-20.535 20.535-20.535s20.535 9.194 20.535 20.535-9.194 20.535-20.535 20.535-20.535-9.194-20.535-20.535zm0 96.066c0-11.341 9.194-20.535 20.535-20.535s20.535 9.194 20.535 20.535-9.194 20.535-20.535 20.535-20.535-9.194-20.535-20.535zm20.535 116.6c-11.341 0-20.535-9.194-20.535-20.535s9.194-20.535 20.535-20.535 20.535 9.194 20.535 20.535c0 11.342-9.194 20.535-20.535 20.535zm41.641-35.713-32.854-32.854 32.854-32.854 32.854 32.854zm41.663 35.713c-11.341 0-20.557-9.194-20.557-20.535s9.216-20.535 20.557-20.535 20.513 9.194 20.513 20.535c0 11.342-9.172 20.535-20.513 20.535zm41.619-35.713-32.854-32.854 32.854-32.854 32.854 32.854zm62.176 15.178c0 11.341-9.194 20.535-20.535 20.535s-20.535-9.194-20.535-20.535 9.194-20.535 20.535-20.535 20.535 9.194 20.535 20.535zm-20.535-75.53c-11.341 0-20.535-9.194-20.535-20.535s9.194-20.535 20.535-20.535 20.535 9.194 20.535 20.535-9.194 20.535-20.535 20.535z" fill="#fa0"/></g><g><path d="m372.28 278.771-24.211-24.211 24.204-24.204c-.409-30.565-18.565-56.846-44.633-69.007l-29.999 29.999-37.206-37.206h-4.413v31.851c11.322.023 20.513 9.206 20.513 20.533s-9.192 20.51-20.513 20.533v55c11.322.023 20.513 9.206 20.513 20.533s-9.192 20.51-20.513 20.533v55c11.322.023 20.513 9.206 20.513 20.533s-9.192 20.51-20.513 20.533v31.851h4.413l37.206-37.206 29.999 29.999c26.068-12.16 44.224-38.441 44.633-69.007l-24.204-24.204 24.211-24.211zm-32.998-92.78c11.341 0 20.535 9.194 20.535 20.535s-9.194 20.535-20.535 20.535-20.535-9.194-20.535-20.535 9.194-20.535 20.535-20.535zm-74.495 68.569 32.854-32.854 32.854 32.854-32.854 32.854zm32.854 128.92-32.854-32.854 32.854-32.854 32.854 32.854zm62.176 15.178c0 11.341-9.194 20.535-20.535 20.535s-20.535-9.194-20.535-20.535 9.194-20.535 20.535-20.535 20.535 9.194 20.535 20.535zm-20.535-75.53c-11.341 0-20.535-9.194-20.535-20.535s9.194-20.535 20.535-20.535 20.535 9.194 20.535 20.535-9.194 20.535-20.535 20.535z" fill="#ff9500"/></g></g></svg>